<svg width="1280" height="760" viewBox="0 0 1280 760" fill="none" xmlns="http://www.w3.org/2000/svg" role="img" aria-labelledby="title desc">
  <title id="title">Multi-Tenant SaaS Admin Dashboard Preview</title>
  <desc id="desc">Sample preview image showing a dark SaaS admin dashboard with navigation, metrics, revenue chart, notifications, and plans.</desc>
  <rect width="1280" height="760" fill="#020617"/>
  <path d="M0 0h1280v760H0z" fill="url(#bg)"/>
  <g opacity=".45">
    <path d="M0 94h1280M0 188h1280M0 282h1280M0 376h1280M0 470h1280M0 564h1280M0 658h1280" stroke="#1E293B"/>
    <path d="M96 0v760M192 0v760M288 0v760M384 0v760M480 0v760M576 0v760M672 0v760M768 0v760M864 0v760M960 0v760M1056 0v760M1152 0v760" stroke="#1E293B"/>
  </g>

  <rect x="48" y="42" width="1184" height="676" rx="18" fill="#0F172A" stroke="#1E293B"/>
  <rect x="48" y="42" width="250" height="676" rx="18" fill="#020617"/>
  <path d="M298 42v676" stroke="#1E293B"/>

  <rect x="78" y="76" width="42" height="42" rx="10" fill="#2563EB"/>
  <path d="M99 88l15 8v14l-15 8-15-8V96l15-8z" fill="#DBEAFE"/>
  <text x="136" y="95" fill="#F8FAFC" font-family="Inter, Arial, sans-serif" font-size="20" font-weight="700">NexaAdmin</text>
  <text x="136" y="113" fill="#64748B" font-family="Inter, Arial, sans-serif" font-size="12">Control plane</text>

  <g font-family="Inter, Arial, sans-serif" font-size="15" font-weight="600">
    <rect x="78" y="158" width="190" height="40" rx="8" fill="#2563EB"/>
    <circle cx="99" cy="178" r="6" fill="#DBEAFE"/>
    <text x="118" y="183" fill="#F8FAFC">Overview</text>
    <circle cx="99" cy="230" r="6" fill="#64748B"/>
    <text x="118" y="235" fill="#CBD5E1">Tenants</text>
    <circle cx="99" cy="282" r="6" fill="#64748B"/>
    <text x="118" y="287" fill="#CBD5E1">Users</text>
    <circle cx="99" cy="334" r="6" fill="#64748B"/>
    <text x="118" y="339" fill="#CBD5E1">Plans</text>
    <circle cx="99" cy="386" r="6" fill="#64748B"/>
    <text x="118" y="391" fill="#CBD5E1">Subscriptions</text>
    <circle cx="99" cy="438" r="6" fill="#64748B"/>
    <text x="118" y="443" fill="#CBD5E1">Billing</text>
    <circle cx="99" cy="490" r="6" fill="#64748B"/>
    <text x="118" y="495" fill="#CBD5E1">Analytics</text>
    <circle cx="99" cy="542" r="6" fill="#64748B"/>
    <text x="118" y="547" fill="#CBD5E1">Notifications</text>
    <circle cx="99" cy="594" r="6" fill="#64748B"/>
    <text x="118" y="599" fill="#CBD5E1">Settings</text>
  </g>

  <text x="338" y="92" fill="#93C5FD" font-family="Inter, Arial, sans-serif" font-size="15" font-weight="700">Multi-tenant SaaS</text>
  <text x="338" y="132" fill="#F8FAFC" font-family="Inter, Arial, sans-serif" font-size="38" font-weight="800">Admin Dashboard</text>
  <rect x="1048" y="83" width="130" height="42" rx="8" fill="#1E293B" stroke="#334155"/>
  <text x="1078" y="109" fill="#CBD5E1" font-family="Inter, Arial, sans-serif" font-size="14" font-weight="700">Refresh</text>

  <g font-family="Inter, Arial, sans-serif">
    <rect x="338" y="172" width="200" height="112" rx="12" fill="#111827" stroke="#1E293B"/>
    <text x="362" y="207" fill="#94A3B8" font-size="14">Tenants</text>
    <text x="362" y="246" fill="#F8FAFC" font-size="32" font-weight="800">128</text>
    <text x="362" y="266" fill="#64748B" font-size="13">94 active subscriptions</text>

    <rect x="558" y="172" width="200" height="112" rx="12" fill="#111827" stroke="#1E293B"/>
    <text x="582" y="207" fill="#94A3B8" font-size="14">Users</text>
    <text x="582" y="246" fill="#F8FAFC" font-size="32" font-weight="800">18,420</text>
    <text x="582" y="266" fill="#64748B" font-size="13">16,980 active users</text>

    <rect x="778" y="172" width="200" height="112" rx="12" fill="#111827" stroke="#1E293B"/>
    <text x="802" y="207" fill="#94A3B8" font-size="14">MRR</text>
    <text x="802" y="246" fill="#F8FAFC" font-size="32" font-weight="800">$84K</text>
    <text x="802" y="266" fill="#64748B" font-size="13">$31K collected this month</text>

    <rect x="998" y="172" width="180" height="112" rx="12" fill="#111827" stroke="#1E293B"/>
    <text x="1022" y="207" fill="#94A3B8" font-size="14">Churn</text>
    <text x="1022" y="246" fill="#F8FAFC" font-size="32" font-weight="800">2.4%</text>
    <text x="1022" y="266" fill="#64748B" font-size="13">12 trials running</text>
  </g>

  <rect x="338" y="332" width="530" height="280" rx="12" fill="#111827" stroke="#1E293B"/>
  <text x="362" y="370" fill="#F8FAFC" font-family="Inter, Arial, sans-serif" font-size="20" font-weight="800">Revenue</text>
  <g transform="translate(376 405)">
    <line x1="0" y1="172" x2="444" y2="172" stroke="#334155"/>
    <rect x="0" y="90" width="44" height="82" rx="5" fill="#3B82F6"/>
    <rect x="80" y="58" width="44" height="114" rx="5" fill="#3B82F6"/>
    <rect x="160" y="78" width="44" height="94" rx="5" fill="#3B82F6"/>
    <rect x="240" y="34" width="44" height="138" rx="5" fill="#3B82F6"/>
    <rect x="320" y="14" width="44" height="158" rx="5" fill="#3B82F6"/>
    <rect x="400" y="45" width="44" height="127" rx="5" fill="#3B82F6"/>
    <g fill="#64748B" font-family="Inter, Arial, sans-serif" font-size="12">
      <text x="8" y="198">Jan</text>
      <text x="88" y="198">Feb</text>
      <text x="168" y="198">Mar</text>
      <text x="248" y="198">Apr</text>
      <text x="328" y="198">May</text>
      <text x="408" y="198">Jun</text>
    </g>
  </g>

  <rect x="892" y="332" width="286" height="280" rx="12" fill="#111827" stroke="#1E293B"/>
  <text x="916" y="370" fill="#F8FAFC" font-family="Inter, Arial, sans-serif" font-size="20" font-weight="800">Notifications</text>
  <g font-family="Inter, Arial, sans-serif">
    <text x="916" y="414" fill="#F8FAFC" font-size="15" font-weight="700">Payment retry queued</text>
    <text x="916" y="436" fill="#94A3B8" font-size="13">Invoice collection is pending.</text>
    <path d="M916 458h238" stroke="#1E293B"/>
    <text x="916" y="492" fill="#F8FAFC" font-size="15" font-weight="700">New tenant onboarded</text>
    <text x="916" y="514" fill="#94A3B8" font-size="13">Workspace setup completed.</text>
    <path d="M916 536h238" stroke="#1E293B"/>
    <text x="916" y="570" fill="#F8FAFC" font-size="15" font-weight="700">Seat limit warning</text>
    <text x="916" y="592" fill="#94A3B8" font-size="13">Plan upgrade recommended.</text>
  </g>

  <g font-family="Inter, Arial, sans-serif">
    <text x="338" y="665" fill="#F8FAFC" font-size="20" font-weight="800">Plans</text>
    <rect x="422" y="638" width="190" height="48" rx="10" fill="#111827" stroke="#1E293B"/>
    <text x="446" y="668" fill="#CBD5E1" font-size="15" font-weight="700">Starter - $29/mo</text>
    <rect x="630" y="638" width="190" height="48" rx="10" fill="#111827" stroke="#1E293B"/>
    <text x="654" y="668" fill="#CBD5E1" font-size="15" font-weight="700">Growth - $99/mo</text>
    <rect x="838" y="638" width="190" height="48" rx="10" fill="#111827" stroke="#1E293B"/>
    <text x="862" y="668" fill="#CBD5E1" font-size="15" font-weight="700">Scale - $249/mo</text>
  </g>

  <defs>
    <radialGradient id="bg" cx="0" cy="0" r="1" gradientUnits="userSpaceOnUse" gradientTransform="translate(1050 95) rotate(139) scale(820 530)">
      <stop stop-color="#1D4ED8" stop-opacity=".24"/>
      <stop offset="1" stop-color="#020617" stop-opacity="0"/>
    </radialGradient>
  </defs>
</svg>
