<svg width="1280" height="760" viewBox="0 0 1280 760" fill="none" xmlns="http://www.w3.org/2000/svg" role="img" aria-labelledby="title desc">
  <title id="title">Tenant and Billing Management Preview</title>
  <desc id="desc">Preview of tenant records, billing status, invoices, and subscription activity in a SaaS admin interface.</desc>
  <rect width="1280" height="760" fill="#F8FAFC"/>
  <rect x="42" y="42" width="1196" height="676" rx="18" fill="#FFFFFF" stroke="#CBD5E1"/>
  <rect x="42" y="42" width="248" height="676" rx="18" fill="#0F172A"/>
  <path d="M290 42v676" stroke="#CBD5E1"/>
  <rect x="74" y="76" width="42" height="42" rx="10" fill="#0F766E"/>
  <path d="M95 87l15 9v16l-15 9-15-9V96l15-9z" fill="#CCFBF1"/>
  <text x="132" y="95" fill="#F8FAFC" font-family="Inter, Arial, sans-serif" font-size="20" font-weight="700">NexaAdmin</text>
  <text x="132" y="113" fill="#94A3B8" font-family="Inter, Arial, sans-serif" font-size="12">Tenant operations</text>
  <g font-family="Inter, Arial, sans-serif" font-size="15" font-weight="600">
    <text x="92" y="179" fill="#CBD5E1">Overview</text>
    <rect x="72" y="208" width="188" height="40" rx="8" fill="#0F766E"/>
    <text x="92" y="233" fill="#F8FAFC">Tenants</text>
    <text x="92" y="285" fill="#CBD5E1">Users</text>
    <text x="92" y="337" fill="#CBD5E1">Plans</text>
    <text x="92" y="389" fill="#CBD5E1">Subscriptions</text>
    <text x="92" y="441" fill="#CBD5E1">Billing</text>
    <text x="92" y="493" fill="#CBD5E1">Analytics</text>
  </g>
  <text x="330" y="96" fill="#0F766E" font-family="Inter, Arial, sans-serif" font-size="15" font-weight="800">Operations</text>
  <text x="330" y="134" fill="#0F172A" font-family="Inter, Arial, sans-serif" font-size="36" font-weight="800">Tenants and Billing</text>
  <rect x="1056" y="84" width="128" height="42" rx="8" fill="#0F172A"/>
  <text x="1087" y="110" fill="#F8FAFC" font-family="Inter, Arial, sans-serif" font-size="14" font-weight="700">Export</text>
  <g font-family="Inter, Arial, sans-serif">
    <rect x="330" y="174" width="258" height="112" rx="10" fill="#ECFDF5" stroke="#A7F3D0"/>
    <text x="354" y="210" fill="#047857" font-size="14" font-weight="700">Active tenants</text>
    <text x="354" y="250" fill="#064E3B" font-size="34" font-weight="800">94</text>
    <text x="354" y="270" fill="#0F766E" font-size="13">23 on Growth plan</text>
    <rect x="610" y="174" width="258" height="112" rx="10" fill="#EFF6FF" stroke="#BFDBFE"/>
    <text x="634" y="210" fill="#1D4ED8" font-size="14" font-weight="700">Paid invoices</text>
    <text x="634" y="250" fill="#1E3A8A" font-size="34" font-weight="800">$31K</text>
    <text x="634" y="270" fill="#2563EB" font-size="13">This billing cycle</text>
    <rect x="890" y="174" width="258" height="112" rx="10" fill="#FFF7ED" stroke="#FED7AA"/>
    <text x="914" y="210" fill="#C2410C" font-size="14" font-weight="700">Payment retries</text>
    <text x="914" y="250" fill="#7C2D12" font-size="34" font-weight="800">7</text>
    <text x="914" y="270" fill="#EA580C" font-size="13">Collection in progress</text>
  </g>
  <rect x="330" y="326" width="510" height="314" rx="12" fill="#FFFFFF" stroke="#CBD5E1"/>
  <text x="356" y="366" fill="#0F172A" font-family="Inter, Arial, sans-serif" font-size="20" font-weight="800">Tenant Directory</text>
  <g font-family="Inter, Arial, sans-serif" font-size="14">
    <rect x="356" y="392" width="458" height="42" rx="8" fill="#F1F5F9"/>
    <text x="378" y="419" fill="#475569" font-weight="700">Tenant</text><text x="582" y="419" fill="#475569" font-weight="700">Plan</text><text x="704" y="419" fill="#475569" font-weight="700">Status</text>
    <text x="378" y="469" fill="#0F172A" font-weight="700">Acme Cloud</text><text x="582" y="469" fill="#334155">Scale</text><rect x="704" y="448" width="78" height="28" rx="14" fill="#DCFCE7"/><text x="724" y="467" fill="#166534" font-weight="700">Active</text>
    <path d="M356 492h458" stroke="#E2E8F0"/>
    <text x="378" y="533" fill="#0F172A" font-weight="700">Northstar Labs</text><text x="582" y="533" fill="#334155">Growth</text><rect x="704" y="512" width="78" height="28" rx="14" fill="#FEF3C7"/><text x="724" y="531" fill="#92400E" font-weight="700">Trial</text>
    <path d="M356 556h458" stroke="#E2E8F0"/>
    <text x="378" y="597" fill="#0F172A" font-weight="700">BrightDesk</text><text x="582" y="597" fill="#334155">Starter</text><rect x="704" y="576" width="78" height="28" rx="14" fill="#DBEAFE"/><text x="724" y="595" fill="#1E40AF" font-weight="700">Paid</text>
  </g>
  <rect x="872" y="326" width="276" height="314" rx="12" fill="#FFFFFF" stroke="#CBD5E1"/>
  <text x="898" y="366" fill="#0F172A" font-family="Inter, Arial, sans-serif" font-size="20" font-weight="800">Invoices</text>
  <g font-family="Inter, Arial, sans-serif">
    <text x="898" y="418" fill="#0F172A" font-size="15" font-weight="800">INV-1048</text><text x="1070" y="418" fill="#166534" font-size="14" font-weight="700">$2,490</text>
    <text x="898" y="441" fill="#64748B" font-size="13">Acme Cloud - paid</text><path d="M898 468h224" stroke="#E2E8F0"/>
    <text x="898" y="514" fill="#0F172A" font-size="15" font-weight="800">INV-1049</text><text x="1070" y="514" fill="#B45309" font-size="14" font-weight="700">$990</text>
    <text x="898" y="537" fill="#64748B" font-size="13">Northstar Labs - retry</text><path d="M898 564h224" stroke="#E2E8F0"/>
    <text x="898" y="610" fill="#0F172A" font-size="15" font-weight="800">INV-1050</text><text x="1070" y="610" fill="#166534" font-size="14" font-weight="700">$290</text>
    <text x="898" y="633" fill="#64748B" font-size="13">BrightDesk - paid</text>
  </g>
</svg>
